<?xml version="1.0" standalone="no"?>
<!DOCTYPE svg PUBLIC "-//W3C//DTD SVG 20010904//EN"
 "http://www.w3.org/TR/2001/REC-SVG-20010904/DTD/svg10.dtd">
<svg version="1.0" xmlns="http://www.w3.org/2000/svg"
 width="868.000000pt" height="868.000000pt" viewBox="0 0 868.000000 868.000000"
 preserveAspectRatio="xMidYMid meet">
<metadata>
Created by potrace 1.14, written by Peter Selinger 2001-2017
</metadata>
<g transform="translate(0.000000,868.000000) scale(0.100000,-0.100000)"
fill="#000000" stroke="none">
<path d="M410 8653 c-69 -14 -140 -45 -190 -82 -38 -29 -110 -99 -110 -107 0
-3 -9 -18 -19 -33 -11 -15 -30 -59 -43 -97 l-24 -69 2 -3935 c1 -3696 2 -3937
18 -3975 40 -93 63 -130 117 -185 49 -51 122 -101 140 -96 3 0 12 -4 20 -10
49 -38 55 -39 1704 -38 1526 0 1648 1 1670 13 6 3 19 7 29 8 44 7 132 61 186
114 62 61 98 116 126 194 17 48 18 235 19 3975 1 2367 -2 3937 -8 3955 -5 17
-9 36 -10 43 0 6 -4 12 -9 12 -5 0 -7 4 -4 9 7 11 -30 83 -56 111 -10 11 -16
20 -12 20 3 0 -10 16 -29 35 -19 19 -40 35 -46 35 -6 0 -11 4 -11 10 0 24
-138 85 -219 97 -25 3 -751 6 -1613 7 -1194 1 -1582 -2 -1628 -11z"/>
<path d="M4969 8666 c-2 -2 -43 -6 -90 -8 -47 -3 -89 -7 -95 -10 -5 -3 -27
-11 -49 -18 -22 -7 -52 -21 -67 -32 -16 -11 -28 -17 -28 -15 0 3 -15 -9 -34
-26 -18 -18 -33 -34 -33 -37 0 -3 -12 -30 -26 -60 -15 -30 -27 -61 -27 -67 0
-7 -3 -13 -7 -13 -16 0 -18 -216 -18 -1845 0 -1782 -2 -1721 47 -1820 11 -22
32 -52 46 -67 14 -16 22 -28 17 -28 -4 0 10 -12 31 -26 21 -15 42 -32 46 -38
4 -6 8 -8 8 -3 0 4 15 0 33 -9 17 -10 41 -19 52 -20 11 -1 40 -7 65 -13 31 -7
525 -10 1555 -8 l1510 2 62 21 c43 15 64 18 67 10 2 -6 5 -4 5 5 1 9 16 24 34
32 72 35 143 143 167 257 8 40 12 503 14 1748 2 1570 1 1697 -15 1760 -25 101
-51 152 -105 207 -27 27 -52 49 -56 50 -4 0 -16 7 -26 15 -10 8 -25 17 -33 19
-8 2 -36 11 -64 19 -45 15 -206 17 -1516 19 -806 2 -1467 2 -1470 -1z"/>
<path d="M4887 4154 c-1 -1 -22 -4 -47 -7 -146 -17 -263 -105 -305 -228 -19
-57 -23 -77 -31 -162 -8 -89 -9 -3274 -1 -3352 24 -232 122 -347 327 -385 49
-10 413 -13 1460 -13 767 0 1438 2 1490 3 157 5 275 43 348 113 28 27 62 76
67 97 1 3 7 19 14 35 39 92 39 92 37 1840 -1 930 -5 1701 -7 1715 -18 82 -32
130 -39 130 -4 0 -11 11 -14 25 -4 14 -29 47 -56 74 -56 54 -142 94 -230 107
-43 6 -3006 14 -3013 8z"/>
</g>
</svg>
