<?xml version="1.0" ?><svg fill="none" height="24" viewBox="0 0 24 24" width="24" xmlns="http://www.w3.org/2000/svg"><path clip-rule="evenodd" d="M4 2.5C3.17157 2.5 2.5 3.17157 2.5 4V20C2.5 20.8284 3.17157 21.5 4 21.5H11.5V15H9.5C9.22386 15 9 14.7761 9 14.5V11C9 10.7239 9.22386 10.5 9.5 10.5H11.5V8C11.5 5.79086 13.2909 4 15.5 4H19C19.2761 4 19.5 4.22386 19.5 4.5V8C19.5 8.27614 19.2761 8.5 19 8.5H17.5C16.9477 8.5 16.5 8.94772 16.5 9.5V10.5H19C19.1569 10.5 19.3047 10.5736 19.3992 10.6989C19.4937 10.8242 19.5239 10.9865 19.4808 11.1374L18.4808 14.6374C18.4194 14.852 18.2232 15 18 15H16.5V21.5H20C20.8284 21.5 21.5 20.8284 21.5 20V4C21.5 3.17157 20.8284 2.5 20 2.5H4ZM1.5 4C1.5 2.61929 2.61929 1.5 4 1.5H20C21.3807 1.5 22.5 2.61929 22.5 4V20C22.5 21.3807 21.3807 22.5 20 22.5H16C15.7239 22.5 15.5 22.2761 15.5 22V14.5C15.5 14.2239 15.7239 14 16 14H17.6228L18.3371 11.5H16C15.7239 11.5 15.5 11.2761 15.5 11V9.5C15.5 8.39543 16.3954 7.5 17.5 7.5H18.5V5H15.5C13.8431 5 12.5 6.34315 12.5 8V11C12.5 11.2761 12.2761 11.5 12 11.5H10V14H12C12.2761 14 12.5 14.2239 12.5 14.5V22C12.5 22.2761 12.2761 22.5 12 22.5H4C2.61929 22.5 1.5 21.3807 1.5 20V4Z" fill="#ffffff" fill-rule="evenodd"/></svg>