<svg width="16" height="20" viewBox="0 0 16 20" fill="none" xmlns="http://www.w3.org/2000/svg">
<path d="M7.645 15.358L7.64398 15.357L3.55398 11.257L3.55346 11.2564C2.67346 10.3769 2.07407 9.25614 1.8311 8.03591C1.58813 6.81568 1.7125 5.5508 2.18848 4.40126C2.66446 3.25172 3.47066 2.26916 4.50512 1.57786C5.53958 0.886563 6.75582 0.517578 8 0.517578C9.24418 0.517578 10.4604 0.886563 11.4949 1.57786C12.5293 2.26916 13.3355 3.25172 13.8115 4.40126C14.2875 5.5508 14.4119 6.81568 14.1689 8.03591C13.9259 9.25614 13.3265 10.3769 12.4465 11.2564L12.446 11.257L8.35601 15.357L8.355 15.358C8.30852 15.4049 8.25321 15.4421 8.19229 15.4674C8.13136 15.4928 8.06601 15.5059 8 15.5059C7.93399 15.5059 7.86864 15.4928 7.80771 15.4674C7.74679 15.4421 7.69148 15.4049 7.645 15.358ZM5.08557 2.37213L5.08557 2.37213L5.08369 2.37337C4.42469 2.81032 3.87159 3.38893 3.46478 4.06695C3.05819 4.7446 2.80799 5.50445 2.73241 6.29108C2.65381 7.07013 2.74979 7.8569 3.01339 8.59421C3.27706 9.33173 3.7018 10.0012 4.25672 10.5539C4.25688 10.5541 4.25704 10.5542 4.25719 10.5544L7.64645 13.9436L8 14.2972L8.35355 13.9436L11.7436 10.5536L11.7447 10.5525C12.2987 9.99478 12.7222 9.32127 12.9848 8.58037C13.2473 7.83947 13.3425 7.04958 13.2633 6.26752C13.1842 5.48547 12.9327 4.73066 12.527 4.0574C12.1213 3.38414 11.5714 2.80915 10.9169 2.37378L10.9169 2.37378L10.9144 2.37213C10.0487 1.8037 9.03566 1.50085 8 1.50085C6.96434 1.50085 5.95129 1.8037 5.08557 2.37213ZM8.83335 8.04729C8.58668 8.21211 8.29667 8.30009 8 8.30009C7.60218 8.30009 7.22065 8.14205 6.93934 7.86075C6.65804 7.57944 6.5 7.19791 6.5 6.80009C6.5 6.50342 6.58797 6.21341 6.7528 5.96673C6.91762 5.72006 7.15189 5.5278 7.42598 5.41427C7.70006 5.30074 8.00166 5.27103 8.29264 5.32891C8.58361 5.38679 8.85088 5.52965 9.06066 5.73943C9.27044 5.94921 9.4133 6.21648 9.47118 6.50745C9.52906 6.79842 9.49935 7.10002 9.38582 7.37411C9.27229 7.6482 9.08003 7.88247 8.83335 8.04729ZM0.646447 18.6465C0.740214 18.5528 0.867391 18.5001 1 18.5001H15C15.1326 18.5001 15.2598 18.5528 15.3536 18.6465C15.4473 18.7403 15.5 18.8675 15.5 19.0001C15.5 19.1327 15.4473 19.2599 15.3536 19.3536C15.2598 19.4474 15.1326 19.5001 15 19.5001H1C0.867391 19.5001 0.740214 19.4474 0.646447 19.3536C0.552679 19.2599 0.5 19.1327 0.5 19.0001C0.5 18.8675 0.552679 18.7403 0.646447 18.6465Z" stroke="#646464"/>
</svg>
