<svg width="23" height="22" viewBox="0 0 23 22" fill="none" xmlns="http://www.w3.org/2000/svg">
<path d="M21.5001 15.9201V18.9201C21.5012 19.1986 21.4441 19.4743 21.3326 19.7294C21.221 19.9846 21.0574 20.2137 20.8521 20.402C20.6469 20.5902 20.4046 20.7336 20.1408 20.8228C19.877 20.912 19.5974 20.9452 19.3201 20.9201C16.2429 20.5857 13.2871 19.5342 10.6901 17.8501C8.27388 16.3148 6.22539 14.2663 4.69006 11.8501C3.00003 9.2413 1.9483 6.27109 1.62006 3.1801C1.59507 2.90356 1.62793 2.62486 1.71656 2.36172C1.80518 2.09859 1.94763 1.85679 2.13482 1.65172C2.32202 1.44665 2.54986 1.28281 2.80385 1.17062C3.05783 1.05843 3.3324 1.00036 3.61006 1.0001H6.61006C7.09536 0.995321 7.56585 1.16718 7.93382 1.48363C8.30179 1.80008 8.54213 2.23954 8.61005 2.7201C8.73668 3.68016 8.97151 4.62282 9.31006 5.5301C9.4446 5.88802 9.47372 6.27701 9.39396 6.65098C9.31421 7.02494 9.12892 7.36821 8.86005 7.6401L7.59006 8.9101C9.01361 11.4136 11.0865 13.4865 13.5901 14.9101L14.8601 13.6401C15.1319 13.3712 15.4752 13.1859 15.8492 13.1062C16.2231 13.0264 16.6121 13.0556 16.9701 13.1901C17.8773 13.5286 18.82 13.7635 19.7801 13.8901C20.2658 13.9586 20.7095 14.2033 21.0266 14.5776C21.3437 14.9519 21.5122 15.4297 21.5001 15.9201Z" stroke="black" stroke-opacity="0.6" stroke-width="2" stroke-linecap="round" stroke-linejoin="round"/>
</svg>
